<?xml version="1.0" encoding="UTF-8"?>
<svg id="Layer_1" xmlns="http://www.w3.org/2000/svg" version="1.1" viewBox="0 0 333 232">
  <!-- Generator: Adobe Illustrator 29.7.1, SVG Export Plug-In . SVG Version: 2.1.1 Build 8)  -->
  <defs>
    <style>
      .st0 {
        fill: #34449c;
      }

      .st1 {
        fill: #cb2026;
      }

      .st2 {
        fill: #cbcbca;
      }

      .st3 {
        fill: #ccc;
      }

      .st4 {
        fill: #bebf32;
      }

      .st5 {
        fill: #a49;
      }

      .st6 {
        fill: #40b549;
      }

      .st7 {
        fill: #3abfc1;
      }

      .st8 {
        fill: #f5f5f5;
      }
    </style>
  </defs>
  <g>
    <path class="st3" d="M137.43,65.43c-9.13-6.65-20.8-9.74-34.97-9.26-8.06.36-15.23,1.67-21.53,3.97-9.49,3.41-16.76,8.62-21.88,15.63-5.02,6.95-7.4,15.21-7.06,24.79.21,6.67,1.45,12.27,3.68,16.77,2.22,4.5,5.44,8.42,9.67,11.77,9.36,7.47,21.79,10.94,37.27,10.41,16.15-.54,28.66-5.09,37.58-13.61,8.45-8.11,12.45-18.54,12.03-31.28-.42-12.58-5.34-22.31-14.78-29.19h-.01ZM115.42,110.29c-1.54,2.16-3.5,3.89-5.81,5.17-2.36,1.27-4.8,1.96-7.34,2.04-2.67.09-5.23-.45-7.71-1.6-2.48-1.14-4.5-2.74-6.1-4.81-2.48-3.14-3.78-7.1-3.96-11.88-.19-5.48,1.24-10.25,4.29-14.32,3.36-4.63,7.85-7.05,13.42-7.23,5.19-.08,9.42,1.73,12.7,5.45,3.01,3.52,4.61,7.8,4.8,12.85.16,5.29-1.27,10.09-4.29,14.33Z"/>
    <path class="st3" d="M244.66,40.85c-1.26-.04-2.5-.02-3.74,0l2.61-13.97c.06-.35-.27-.64-.6-.52l-16.23,5.54c-.24.08-.37.34-.29.59l.69,2.04c.08.24.34.37.59.29l11.25-3.84c.34-.11.67.18.6.52l-1.81,9.5h-.16c-2.05.15-4.07.41-6.06.75-2.16-.32-4.16-1.28-5.69-2.92-3.98-4.26-3.26-11.39,1.61-15.94,2.81-2.63,6.4-3.82,9.69-3.53-4.55-1.97-10.04-1.19-13.9,2.42-5.2,4.85-5.49,12.98-.66,18.16,1.14,1.23,2.48,2.17,3.91,2.84-3.45.87-6.79,2.01-10,3.41,5.21-1.07,10.67-1.56,16.29-1.37,33.6,1.14,60.03,25.89,59.03,55.28s-29.04,52.29-62.64,51.15c-19.43-.66-36.46-9.22-47.18-22,9.21,23.27,31.6,40.08,58.3,40.99,35.88,1.22,65.96-26.76,67.17-62.49,1.22-35.73-26.89-65.69-62.77-66.9h-.01Z"/>
    <path class="st3" d="M230.3,139.51c15.48.53,27.91-2.94,37.27-10.41,4.23-3.35,7.45-7.26,9.67-11.77,2.23-4.5,3.47-10.1,3.68-16.77.34-9.58-2.04-17.84-7.06-24.79-5.11-7.01-12.39-12.23-21.88-15.63-6.31-2.3-13.48-3.61-21.53-3.97-14.17-.48-25.84,2.61-34.97,9.26-9.44,6.87-14.36,16.61-14.78,29.19-.42,12.74,3.58,23.18,12.03,31.28,8.92,8.52,21.43,13.06,37.58,13.61h0ZM218.01,83.1c3.28-3.73,7.51-5.54,12.7-5.45,5.57.19,10.05,2.61,13.42,7.23,3.05,4.07,4.48,8.84,4.29,14.32-.17,4.78-1.47,8.74-3.95,11.88-1.6,2.07-3.62,3.67-6.1,4.81-2.48,1.16-5.05,1.69-7.71,1.6-2.55-.09-4.98-.77-7.34-2.04-2.31-1.29-4.27-3.01-5.81-5.17-3.02-4.25-4.45-9.04-4.29-14.33.2-5.06,1.79-9.34,4.8-12.85h0Z"/>
    <path class="st3" d="M159.83,113.63c.44-1.13.78-2.24,1.1-3.37l-1.1,3.37Z"/>
    <path class="st3" d="M174.42,94.16c-.94-.19-1.7-.27-2.27-.26-1.46.06-2.88.5-4.24,1.33-.91.56-1.84,1.53-2.81,2.89l-.61,1.24-3.56,10.9c-.32,1.13-.66,2.24-1.1,3.37l-3.87,11.85c1.41-.12,1.02-.21,2.72-.27,2.17-.07,4.47-.12,6.9-.14-.14-1.68-.23-3.17-.27-4.47-.15-4.23-.02-7.36.36-9.38.31-1.68,1.04-2.99,2.18-3.96,1.16-.96,2.61-1.48,4.37-1.54.91-.02,1.92.12,3.03.45l-.15-1.85c-.34-4.14-.57-7.53-.67-10.17h0Z"/>
    <path class="st3" d="M103.84,151.25c-33.6,1.14-61.64-21.76-62.64-51.15-1-29.39,25.43-54.14,59.03-55.28,5.62-.19,11.08.29,16.29,1.37-3.21-1.4-6.55-2.54-10-3.41,1.43-.67,2.76-1.61,3.91-2.84,4.83-5.17,4.54-13.3-.66-18.16-3.87-3.61-9.36-4.39-13.9-2.42,3.29-.29,6.88.9,9.69,3.53,4.87,4.55,5.58,11.68,1.61,15.94-1.53,1.64-3.53,2.6-5.69,2.92-1.99-.34-4.01-.6-6.06-.75h-.27l-1.81-9.49c-.07-.35.27-.64.6-.52l11.25,3.84c.24.08.5-.05.59-.29l.69-2.04c.08-.24-.05-.5-.29-.59l-16.23-5.54c-.33-.11-.67.17-.6.52l2.61,13.97c-1.2-.03-2.41-.05-3.63,0-35.88,1.22-63.99,31.17-62.77,66.9,1.21,35.73,31.29,63.7,67.17,62.49,26.7-.91,49.08-17.72,58.3-40.99-10.72,12.78-27.75,21.34-47.18,22h-.01Z"/>
  </g>
  <g>
    <rect class="st2" x="61.85" y="172.36" width="26.76" height="41.33"/>
    <rect class="st4" x="88.61" y="172.36" width="26.3" height="41.33"/>
    <rect class="st7" x="114.9" y="172.36" width="26.67" height="41.33"/>
    <rect class="st6" x="141.57" y="172.36" width="31.44" height="41.33"/>
    <rect class="st5" x="173.01" y="172.36" width="31.26" height="41.33"/>
    <rect class="st1" x="204.26" y="172.36" width="26.24" height="41.33"/>
    <rect class="st0" x="230.51" y="172.36" width="40.64" height="41.33"/>
    <path class="st8" d="M63.12,200.27c1.1-8.63,1.66-17.76,1.7-27.37,2.46.04,4.31.06,5.55.06s3.03-.02,5.41-.06c-.27,3.42-.54,7.62-.82,12.59-.19,3.41-.29,5.89-.32,7.46,1.82.05,3.31.08,4.47.08,2.95,0,5.53-.04,7.72-.12l-.1,1.24-.2,2.49c-.12,1.82-.2,3.03-.24,3.63-3.73-.04-7.56-.06-11.49-.06s-7.8.02-11.69.06h0Z"/>
    <path class="st8" d="M89.06,200.27c.51-5.09.85-9.24,1.04-12.45.31-5.76.47-10.27.47-13.53,0-.23,0-.69-.02-1.38,3.13.04,6.83.06,11.1.06,4.89,0,9.1-.02,12.64-.06-.05.63-.12,1.81-.22,3.55-.09,1.88-.15,3.14-.18,3.77-2.96-.11-5.44-.16-7.44-.16-1.56,0-3.44.04-5.64.12l-.19,2.67c2.15.03,3.55.04,4.19.04.95,0,3.16-.05,6.61-.16-.17,2.33-.3,4.4-.39,6.21l-.08,1.26c-1.85-.03-3.24-.04-4.17-.04-2.04,0-4.25.05-6.65.14l-.22,2.87c1.01,0,1.72.02,2.15.02,3.39,0,7.13-.13,11.21-.38-.17,2.17-.32,4.65-.45,7.46-3.21-.04-6.74-.06-10.59-.06-4.7,0-9.09.02-13.19.06h.02Z"/>
    <path class="st8" d="M140.44,192.31c-.59,2.98-1.01,5.63-1.26,7.96-2.94.36-5.57.54-7.9.54-4.25,0-7.84-.98-10.76-2.93-1.77-1.18-3.05-2.57-3.85-4.17-.9-1.76-1.34-3.88-1.34-6.34,0-4.54,1.54-8.11,4.63-10.71,3.41-2.87,7.73-4.31,12.95-4.31,1.87,0,4.46.26,7.76.78.05,1.79.16,4.36.32,7.7-2.82-.59-4.94-.88-6.36-.88-2.71,0-4.89.8-6.54,2.39-1.44,1.4-2.17,3.1-2.17,5.09,0,1.82.65,3.27,1.94,4.34,1.3,1.08,3.05,1.61,5.25,1.61,1.9,0,4.34-.36,7.32-1.08h0Z"/>
    <path class="st8" d="M141.89,200.27c.25-3.29.41-5.41.48-6.36.55-7.08.83-13.24.83-18.46,0-.53,0-1.38-.02-2.55,2.66.04,4.47.06,5.43.06s2.69-.02,5.27-.06c-.39,4.05-.6,7.19-.64,9.4h8.4c.15-2.99.23-5.39.23-7.2,0-.41-.02-1.15-.06-2.21,3.3.04,5.16.06,5.6.06.57,0,2.26-.02,5.08-.06-.11,2.42-.3,5.37-.54,8.84-.38,5.36-.56,10.41-.56,15.16v3.37c-3.05-.04-4.82-.06-5.31-.06-.59,0-2.42.02-5.49.06.34-2.9.55-6.39.66-10.47h-8.4c-.1,2.46-.21,5.95-.31,10.47-3.1-.04-4.94-.06-5.51-.06-.65,0-2.37.02-5.16.06h.02,0Z"/>
    <path class="st8" d="M175.04,172.9c2.64.04,4.43.06,5.38.06,1.02,0,2.72-.02,5.08-.06l-.1,1.58c-.56,7.54-.85,12.2-.85,13.97s.29,3.01.87,3.73c.53.67,1.41,1,2.64,1s2.04-.33,2.58-.98.92-1.85,1.14-3.57c.43-3.37.76-8.61.99-15.74,2.64.04,4.41.06,5.32.06.41,0,2.2-.02,5.38-.06-.08.92-.22,2.75-.41,5.47-.42,5.76-.62,8.77-.61,9.02-.04,2.18-.13,3.81-.28,4.9-.14,1.09-.39,2-.73,2.74-1.14,2.42-3.47,4.1-6.99,5.03-1.92.51-4.16.76-6.72.76-4.04,0-7.36-.7-9.96-2.11-1.3-.69-2.25-1.53-2.85-2.51-.7-1.12-1.04-2.51-1.04-4.17,0-1.32.15-3.5.45-6.54.17-1.42.41-5.62.73-12.61l-.02.03h0Z"/>
    <path class="st8" d="M205.22,200.27c.17-3.33.26-5.75.27-7.28,1.99-2.02,4.21-4.37,6.67-7.05,2.46-2.68,4.21-4.65,5.24-5.92-1.46-.04-2.73-.06-3.81-.06-2.17,0-4.39.07-6.66.2.12-1.71.18-3.61.18-5.69,0-.31,0-.83-.02-1.56,3.81.04,7.79.06,11.93.06,3.8,0,7.41-.02,10.82-.06-.12,2.14-.22,4.53-.29,7.18-3.75,3.88-7.73,8.18-11.94,12.91,1.09.03,1.85.04,2.29.04,2.53,0,5.48-.09,8.86-.26l-.06,1.16c-.12,2.3-.21,4.41-.27,6.34-4.36-.04-8.3-.06-11.82-.06s-7.21.02-11.38.06h0Z"/>
    <path class="st8" d="M231.06,200.27c1.7-2.86,4.44-7.83,8.22-14.9,3.1-5.79,5.24-9.95,6.42-12.47,3.09.04,5.4.06,6.94.06s3.54-.02,5.83-.06c3.43,9.98,6.81,19.11,10.12,27.37-2.91-.04-4.76-.06-5.53-.06-.93,0-2.85.02-5.75.06-.35-1.5-1-3.59-1.96-6.28h-9.79c-.83,1.74-1.76,3.83-2.81,6.28-3.15-.04-5.11-.06-5.85-.06-.91,0-2.85.02-5.83.06h0ZM248.53,186.9h5.07l-.32-1.02c-.76-2.43-1.34-4.32-1.72-5.67-.87,2.03-1.88,4.26-3.03,6.7h0Z"/>
  </g>
</svg>